<?xml version="1.0" encoding="utf-8"?>
<!-- Generator: Adobe Illustrator 16.0.0, SVG Export Plug-In . SVG Version: 6.00 Build 0)  -->
<!DOCTYPE svg PUBLIC "-//W3C//DTD SVG 1.1//EN" "http://www.w3.org/Graphics/SVG/1.1/DTD/svg11.dtd">
<svg version="1.1" id="Capa_1" xmlns="http://www.w3.org/2000/svg" xmlns:xlink="http://www.w3.org/1999/xlink" x="0px" y="0px"
	 xml:space="preserve">
<g transform="scale(1.2, 1.2)">
<!--path style="fill:#8c8c8c;" d="M6.20,3.10 C6.20,1.39 4.81,0.00 3.10,0.00 C1.39,0.00 0.00,1.39 0.00,3.10 C0.00,4.81 1.39,6.19 3.10,6.19 C4.81,6.19 6.20,4.81 6.20,3.10 Z "/-->
<path style="fill:#1a1a1a;" d="M4.36,4.73 C4.26,4.73 4.17,4.69 4.09,4.62 L1.58,2.10 C1.43,1.96 1.43,1.72 1.58,1.57 C1.72,1.43 1.96,1.43 2.11,1.57 L4.62,4.09 C4.77,4.24 4.77,4.47 4.62,4.62 C4.55,4.69 4.45,4.73 4.36,4.73 Z"/>
<path style="fill:#1a1a1a;" d="M1.84,4.73 C1.75,4.73 1.65,4.69 1.58,4.62 C1.43,4.47 1.43,4.24 1.58,4.09 L4.09,1.57 C4.24,1.43 4.48,1.43 4.62,1.57 C4.77,1.72 4.77,1.96 4.62,2.10 L2.11,4.62 C2.03,4.69 1.94,4.73 1.84,4.73 Z"/>
</g>
</svg>
